<mxfile host="app.diagrams.net" modified="2023-10-13T07:03:16.255Z" agent="Mozilla/5.0 (Windows NT 10.0; Win64; x64) AppleWebKit/537.36 (KHTML, like Gecko) Chrome/116.0.0.0 Safari/537.36 OPR/102.0.0.0 (Edition Yx GX)" version="22.0.4" etag="iadBgbhzwwW33dsvfN9r" type="github">
  <diagram name="Страница — 1" id="FvAb1zWmd12DKddEdcqH">
    <mxGraphModel>
      <root>
        <mxCell id="0" />
        <mxCell id="1" parent="0" />
      </root>
    </mxGraphModel>
  </diagram>
</mxfile>
